<?xml version="1.0" ?><!DOCTYPE svg  PUBLIC '-//W3C//DTD SVG 1.1//EN'  'http://www.w3.org/Graphics/SVG/1.1/DTD/svg11.dtd'><svg fill="#000" height="512px" id="Layer_1" style="enable-background:new 0 0 128 128;" version="1.1" viewBox="0 0 128 128" width="512px" xml:space="preserve" xmlns="http://www.w3.org/2000/svg" xmlns:xlink="http://www.w3.org/1999/xlink"><g><path d="M96.57,48.84c0,0-2.4-1.54-5.79-1.54c-9.9,0-15.17,1.05-19.9,2.9c-4.56,1.79-5.49,2.84-5.49,2.84h-2.77   c0,0-0.93-1.05-5.49-2.84c-4.73-1.86-10.01-2.9-19.9-2.9c-3.39,0-5.79,1.54-5.79,1.54l-5.17-0.37l0.62,4.87c0,0-0.33,0.07,1.6,1.35   c1.93,1.27,2.26,5.43,4.18,9.36c1.93,3.93,3.42,5.91,11.21,7.04c7.79,1.13,12.59-2.95,14.37-5.46c1.78-2.51,4.15-9.33,4.48-9.33   s2.23,0,2.55,0c0.33,0,2.69,6.82,4.48,9.33c1.78,2.51,6.59,6.59,14.37,5.46c7.79-1.13,9.28-3.11,11.21-7.04   c1.93-3.93,2.26-8.08,4.18-9.36c1.93-1.27,1.6-1.35,1.6-1.35l0.62-4.87L96.57,48.84z M59.49,58.27c-0.84,1.96-2.1,4.92-3.03,6.22   c-0.55,0.77-3.59,4.6-9.91,4.6c-0.77,0-1.57-0.06-2.37-0.18c-7.21-1.04-7.99-2.65-9.56-5.84c-0.7-1.42-1.17-2.89-1.63-4.31   c-0.81-2.53-1.11-4.86-0.48-6.13c0.63-1.27,2.05-3.2,4.69-3.2c10.13,0,14.97,1.08,19.11,2.71C59.66,53.45,60.3,56.37,59.49,58.27z    M95,58.77c-0.46,1.42-0.93,2.89-1.63,4.31c-1.57,3.19-2.35,4.79-9.56,5.84c-0.81,0.12-1.6,0.18-2.37,0.18   c-6.32,0-9.36-3.83-9.91-4.6c-0.93-1.3-2.19-4.27-3.03-6.22c-0.81-1.9-0.16-4.82,3.17-6.13c4.14-1.62,8.97-2.71,19.11-2.71   c2.65,0,4.07,1.93,4.69,3.2S95.81,56.24,95,58.77z"/><path d="M104.05,32.79c-0.15-0.49-1.48-3.49-5.34-4.47s-4-0.89-4-0.89s0.15-0.45,0.35-1.61s-1.04-7.91-1.53-9.08   s-4.45-5.5-4.45-5.5s3.36,5.05,3.76,6.21s-0.3,1.97-0.3,1.97s-4.15-5.99-6.38-7.65c-2.22-1.65-8.55-4.2-8.55-4.2   s2.22,0.94,4.5,2.68s3.16,4.2,3.16,4.2s-2.97-3.13-11.42-5.99c-8.45-2.86-16.76-2.46-21.9-1.83s-8.75,2.33-8.75,2.33   s3.51-0.76,7.71-1.12c4.2-0.36,8.31,0.89,8.31,0.89s-3.46-0.09-5.24,0c-1.78,0.09-7.56,1.65-9.34,2.55   c-1.78,0.89-3.71,2.64-3.71,2.64s-0.64,0.18-1.68,0.58c-1.04,0.4-2.82,1.83-2.82,1.83s4.65-1.97-2.67,1.34   c-7.32,3.31-9.9,13.64-10.17,17.63c-0.26,3.99,1.15,9.9,1.15,9.9s-0.07-2.15-0.46-3.79c-0.4-1.64,0.96-8.38,0.96-8.38   s-0.16,2.86,0.66,5.64c0.82,2.77,2.67,6.76,2.67,6.76s0-0.92-0.3-3.85c-0.3-2.92,2.18-5.78,2.18-5.78s-0.43,1.16-0.59,3.52   s0.76,3.58,0.76,3.58s-0.59-1.31,0-4.47s1.71-5.43,8.44-6.44c6.72-1.01,15.36,7.39,15.36,7.39s1.02,1.31,2.18,1.58   c1.15,0.27,1.42-0.42,1.42-0.42s0.99,0.36,2.41,0.39c1.42,0.03,3.26-1.19,3.26-1.19s5.14,2.3,8.8,2.44   c3.66,0.15,6.39-1.94,6.39-1.94s0.69-0.33,2.21-0.45c1.52-0.12,4.63-1.04,6.26-1.37c3.26-0.66,5.16-4.22,5.16-4.22   s-0.59,3.35,0.25,5.68c0.84,2.33,2.22,3.53,2.87,4.92c0.64,1.39-0.05,3.53,0.15,3.35c0.2-0.18,1.68-1.88,1.83-2.73   c0.15-0.85,0.3-1.03,0.3-1.03s1.38-1.7,2.37-3.13c0.99-1.43,1.33-5.14,1.38-6.57s-1.68-3.04-1.68-3.04s-0.05-0.22,1.38,0.18   c1.43,0.4,3.11,2.24,3.11,2.24S104.2,33.28,104.05,32.79z"/><path d="M91.62,78.03c-6.88,0-14.77-6.76-20.63-6.76s-6.96,3.02-6.96,5.4c0,1.46,3.65,7.91,15.87,7.91c0.7,0,1.39-0.04,2.06-0.1   c-0.14,0.62-0.36,1.22-0.71,1.85c-0.39,0.7-2.54,0.94-2.54,0.94s0.99,0.65,1.54,0.65c0.55,0-1.39,0.27-2.28,1.79   c-0.9,1.52-1.35,2.36-1.35,2.36s-2.63-0.64-3.73,0.3c-1.1,0.94-2.41,2.17-3.93,1.52c-1.52-0.65-1.95-2.49-1.95-2.49   s0.34,0,1.03,0.14c0.69,0.14-0.34-0.43-0.69-1.74s-0.29-1.45-0.29-1.45h-6.13c0,0,0.06,0.15-0.29,1.45s-1.38,1.88-0.69,1.74   c0.69-0.14,1.03-0.14,1.03-0.14s-0.44,1.84-1.95,2.49c-1.52,0.65-2.82-0.58-3.93-1.52s-3.73-0.3-3.73-0.3s-0.46-0.85-1.35-2.36   c-0.9-1.52-2.84-1.79-2.28-1.79c0.55,0,1.54-0.65,1.54-0.65s-2.16-0.24-2.54-0.94c-0.35-0.63-0.57-1.23-0.71-1.85   c0.67,0.07,1.36,0.1,2.06,0.1c12.22,0,15.87-6.45,15.87-7.91c0-2.38-1.1-5.4-6.96-5.4c-5.86,0-13.75,6.76-20.63,6.76   c-5.09,0-8.15-4.08-8.15-4.08s1.12,1.56,3.2,3.49c-0.01,0.83-0.02,2.95-0.02,3.62c-0.02,3.79-0.55,3.47-0.55,7.81   s2.08,10.23,1.99,11.77c-0.09,1.54-1.04,2.23-1.04,2.23s1.44-0.5,1.99-1.37c0.55-0.87,0.41-0.31,0.41-0.31s1.57,4.84,3.32,7.73   s1.12,0.58,0.86-1.15c-0.15-0.99,0.26,1.74,3.2,5.21c2.94,3.47,5.41,2.72,5.41,2.72s-0.41-0.46-0.96-1.04   c-0.55-0.58,0.51-1.69,0.51-1.69s3.02,2.4,3.94,5c0.92,2.6,0,2.06,0.83,1.58c0.83-0.48,2.48-2.02,2.48-2.02s2.95-2.26,4.11-0.64   c1.45,2.03-0.93,4.93-0.93,4.93s3.2-0.22,4.76-1.28c1.37-0.93,2.1-3.13,2.26-3.66c0.16,0.53,0.89,2.74,2.26,3.66   c1.56,1.06,4.76,1.28,4.76,1.28s-2.38-2.9-0.93-4.93c1.16-1.62,4.11,0.64,4.11,0.64s1.65,1.54,2.48,2.02   c0.83,0.48-0.09,1.02,0.83-1.58c0.92-2.6,3.94-5,3.94-5s1.07,1.11,0.51,1.69c-0.55,0.58-0.96,1.04-0.96,1.04s2.47,0.75,5.41-2.72   c2.94-3.47,3.35-6.2,3.2-5.21c-0.26,1.74-0.89,4.04,0.86,1.15c1.75-2.89,3.32-7.73,3.32-7.73s-0.14-0.56,0.41,0.31   c0.55,0.87,1.99,1.37,1.99,1.37s-0.95-0.69-1.04-2.23c-0.09-1.54,1.99-7.43,1.99-11.77s-0.53-4.02-0.55-7.81   c0-0.67-0.02-2.78-0.02-3.62c2.07-1.92,3.2-3.49,3.2-3.49S96.72,78.03,91.62,78.03z"/></g></svg>